PathFileType	3	(X/Y/Z)	D:\Students\303\Renee\Session 1\Renee Cal 01.trc
DataRate	CameraRate	NumFrames	NumMarkers	Units	OrigDataRate	OrigDataStartFrame	OrigNumFrames
100.0	100.0	18	27	mm	100.0	1	599	
Frame#	Time	RASIS			LASIS			RPSIS			LPSIS			RKneeLateral			RKneeMedial			LKneeLateral			LKneeMedial			RAnkleLateral			RAnkleMedial			RShank			RFibula			LAnkleLateral			LAnkleMedial			LShank			LFibula			RMT2			RHeel			RMT5			RToe			LMT2			LHeel			LMT5			LToe			Sternum			LShoulder			RShoulder			
		X1	Y1	Z1	X2	Y2	Z2	X3	Y3	Z3	X4	Y4	Z4	X5	Y5	Z5	X6	Y6	Z6	X7	Y7	Z7	X8	Y8	Z8	X9	Y9	Z9	X10	Y10	Z10	X11	Y11	Z11	X12	Y12	Z12	X13	Y13	Z13	X14	Y14	Z14	X15	Y15	Z15	X16	Y16	Z16	X17	Y17	Z17	X18	Y18	Z18	X19	Y19	Z19	X20	Y20	Z20	X21	Y21	Z21	X22	Y22	Z22	X23	Y23	Z23	X24	Y24	Z24	X25	Y25	Z25	X26	Y26	Z26	X27	Y27	Z27	
1	0	-148.9057	885.9715	-501.92111	-423.46246	887.94836	-497.69135	-222.34409	944.18164	-290.97183	-342.45016	947.70874	-286.14844	-115.68622	428.89029	-385.98001				-481.24884	441.48825	-369.58447										-105.84021	314.18182	-366.6676	-114.02683	389.49298	-376.87024	-452.72571	56.529121	-360.98938				-476.78156	313.53864	-387.46622	-484.01984	409.29919	-361.36084	-177.63292	23.606808	-515.67407	-189.08327	21.099768	-304.15314	-136.52357	20.400486	-495.57504				-415.63419	21.548016	-523.71576	-403.5994	29.930033	-312.45361	-453.5986	19.251705	-497.38431				-291.28384	1310.9415	-473.62158	-426.34644	1358.6537	-364.04373	-130.66859	1365.9745	-396.32825
2	0.01	-148.82635	885.94391	-502.01648	-423.39288	887.9425	-497.78278	-222.25374	944.16852	-291.08572	-342.34259	947.68042	-286.24475	-115.63282	428.85947	-386.06125				-481.13239	441.5611	-369.49387										-105.81185	314.13605	-366.70398	-113.65267	389.61096	-377.12592	-452.71548	56.532619	-361.00336				-476.74161	313.54413	-387.5253	-483.95932	409.32224	-361.43878	-177.63153	23.589336	-515.69269	-189.09416	21.11105	-304.15787	-136.52216	20.400328	-495.58667				-415.61768	21.541142	-523.73175	-403.57401	29.900776	-312.47256	-453.59161	19.249584	-497.38327				-291.24628	1310.9072	-473.77814	-426.27713	1358.6355	-364.23233	-130.62138	1365.9772	-396.51556
3	0.02	-148.74426	885.88934	-502.09351	-423.32047	887.94342	-497.88358	-222.15346	944.09827	-291.23981	-342.23065	947.63892	-286.34024	-115.56969	428.81253	-386.13654				-481.13699	441.49469	-369.75012										-105.7635	314.08347	-366.74466	-113.90811	389.41891	-377.01199	-452.69513	56.5382	-361.01593				-476.69055	313.53265	-387.58371	-483.892	409.31287	-361.52908	-177.63036	23.573721	-515.69751	-189.09497	21.115362	-304.17188	-136.50624	20.390169	-495.59384				-415.61182	21.52363	-523.73181	-403.5256	29.87044	-312.47437	-453.57959	19.23736	-497.38742				-291.19458	1310.8593	-473.92276	-426.21173	1358.599	-364.41992	-130.56995	1365.9716	-396.67737
4	0.03	-148.63553	885.82709	-502.17563	-423.24652	887.9256	-498.00027	-222.05678	944.01831	-291.37384	-342.13049	947.59937	-286.41693	-115.52182	428.75763	-386.21011				-480.98221	441.55695	-369.67056										-105.71424	314.03268	-366.8074	-113.8591	389.3497	-377.07144	-452.68408	56.519909	-361.02765				-476.63333	313.50107	-387.65549	-483.82956	409.30896	-361.63162	-177.62933	23.550739	-515.72345	-189.09612	21.111383	-304.18854	-136.49948	20.38559	-495.60501				-415.58658	21.502687	-523.74689	-403.49075	29.810534	-312.51016	-453.56796	19.211924	-497.39832				-291.14447	1310.7783	-474.0759	-426.14197	1358.5664	-364.59961	-130.5329	1365.9536	-396.85327
5	0.04	-148.5538	885.78186	-502.24786	-423.15045	887.89514	-498.10025	-221.95555	943.96625	-291.4664	-342.04419	947.57031	-286.50867	-115.47839	428.71045	-386.29269				-480.93237	441.5531	-369.79306										-105.67725	313.99112	-366.87357	-113.78606	389.3273	-377.17523	-452.66467	56.514027	-361.04846				-476.56769	313.47748	-387.73038	-483.76611	409.30927	-361.7319	-177.61604	23.546255	-515.7356	-189.08632	21.107336	-304.19986	-136.47658	20.354893	-495.61395				-415.57382	21.475441	-523.76141	-403.43729	29.765436	-312.55463	-453.54523	19.196865	-497.40201				-291.09149	1310.7109	-474.21417	-426.06558	1358.5417	-364.76453	-130.49603	1365.9431	-397.03595
6	0.05	-148.49554	885.76263	-502.31696	-423.06042	887.88666	-498.20563	-221.89276	943.92523	-291.52335	-341.98242	947.5556	-286.60797	-115.43562	428.68594	-386.36401				-480.8786	441.57739	-369.89279										-105.65655	313.96671	-366.92938	-113.75017	389.30899	-377.25882	-452.65411	56.523529	-361.05502				-476.51752	313.46011	-387.80038	-483.70975	409.31149	-361.8226	-177.61339	23.525539	-515.74475	-189.07401	21.1031	-304.22067	-136.4666	20.352638	-495.61984				-415.56699	21.458614	-523.76752	-403.41904	29.795437	-312.52606	-453.53409	19.18162	-497.41992				-291.03848	1310.6387	-474.35013	-426.00497	1358.532	-364.92752	-130.4709	1365.9594	-397.2283
7	0.06	-148.44633	885.771	-502.38513	-422.98193	887.88336	-498.32086	-221.8324	943.9079	-291.60318	-341.92175	947.53491	-286.71973	-115.4083	428.68634	-386.42886				-480.83389	441.56857	-369.98474										-105.63317	313.97491	-366.9704	-113.7091	389.3168	-377.32852	-452.62869	56.508038	-361.06497				-476.47769	313.46182	-387.85464	-483.66428	409.32501	-361.91824	-177.60696	23.532154	-515.74683	-189.07936	21.099953	-304.21594	-136.45204	20.348867	-495.61951				-415.56903	21.450951	-523.77698	-403.4104	29.793503	-312.56842	-453.52878	19.179255	-497.41907				-291.00266	1310.5789	-474.49377	-425.94098	1358.5341	-365.08063	-130.44379	1365.996	-397.41327
8	0.07	-148.3914	885.78406	-502.4411	-422.91379	887.88318	-498.43591	-221.80194	943.91534	-291.63785	-341.89886	947.53119	-286.82993	-115.38884	428.7027	-386.46835				-480.75598	441.56134	-370.10333										-105.61807	313.97659	-366.99503	-113.68595	389.31714	-377.35001	-452.62122	56.51178	-361.06473				-476.45505	313.45563	-387.91312	-483.61237	409.4541	-361.89597	-177.62025	23.54269	-515.75055	-189.09509	21.104715	-304.21561	-136.46315	20.353411	-495.60193				-415.57498	21.454069	-523.77234	-403.43161	29.833632	-312.53506	-453.53848	19.183832	-497.41702				-290.96439	1310.5452	-474.64172	-425.87717	1358.5354	-365.22186	-130.41086	1366.0305	-397.59787
9	0.08	-148.33376	885.8114	-502.51202	-422.8349	887.89734	-498.5527	-221.79997	943.95538	-291.61163	-341.88373	947.53937	-286.93399	-115.37447	428.72705	-386.51163				-480.72757	441.58444	-370.19788										-105.60579	314.00122	-367.0065	-113.6892	389.32587	-377.38678	-452.60779	56.511471	-361.07361				-476.43533	313.48236	-387.97391	-483.59018	409.46271	-361.9826	-177.6232	23.564642	-515.75525	-189.10165	21.110859	-304.21487	-136.45653	20.362423	-495.60263				-415.57135	21.45709	-523.77563	-403.4512	29.887878	-312.51849	-453.53595	19.191528	-497.41919				-290.92203	1310.4937	-474.78635	-425.81204	1358.5488	-365.36343	-130.38405	1366.0637	-397.76788
10	0.09	-148.27826	885.86835	-502.57712	-422.73914	887.90704	-498.67044	-221.79993	943.99542	-291.68182	-341.88565	947.5448	-287.0596	-115.38109	428.76401	-386.54922				-480.68494	441.58972	-370.30246										-105.63162	314.0296	-367.01767	-113.68225	389.37112	-377.41531	-452.59619	56.515484	-361.08072				-476.41852	313.50418	-388.03442	-483.56961	409.46753	-362.0657	-177.63779	23.5814	-515.75342	-189.12688	21.129713	-304.21497	-136.47025	20.39356	-495.60822				-415.57761	21.461096	-523.78271	-403.46658	29.919146	-312.53445	-453.54144	19.202799	-497.4194				-290.87994	1310.4579	-474.91766	-425.75333	1358.5637	-365.50006	-130.36014	1366.116	-397.92599
11	0.1	-148.21181	885.91046	-502.64508	-422.68063	887.94104	-498.82465	-221.8056	944.03424	-291.74268	-341.89252	947.56305	-287.18637	-115.37644	428.79041	-386.56662				-480.67288	441.61057	-370.39777										-105.62764	314.0874	-367.08582	-113.69208	389.40863	-377.43335	-452.59113	56.531013	-361.07816				-476.41	313.53912	-388.09406	-483.54718	409.47922	-362.14929	-177.64836	23.59569	-515.75092	-189.16304	21.151569	-304.21152	-136.47192	20.405001	-495.60541				-415.57541	21.481855	-523.77692	-403.46939	29.949207	-312.56885	-453.53955	19.217569	-497.42007				-290.845	1310.4233	-475.05716	-425.69421	1358.5706	-365.6409	-130.32878	1366.1584	-398.10785
12	0.11	-148.12273	885.92773	-502.67966	-422.60034	887.92413	-498.95551	-221.82057	944.05078	-291.81607	-341.90439	947.54559	-287.32016	-115.37292	428.81583	-386.59961				-480.61963	441.61313	-370.50116										-105.63853	314.09488	-367.07437	-113.70106	389.422	-377.45499	-452.60754	56.541523	-361.08417				-476.40112	313.53897	-388.15533	-483.52921	409.49365	-362.22891	-177.65927	23.612207	-515.76141	-189.19453	21.161207	-304.22891	-136.47188	20.420105	-495.59793				-415.58902	21.477831	-523.76532	-403.4845	29.98716	-312.53659	-453.55142	19.228283	-497.41122				-290.80945	1310.3806	-475.19696	-425.62354	1358.5635	-365.78891	-130.29726	1366.1997	-398.27667
13	0.12	-147.99973	885.92487	-502.75952	-422.49884	887.91553	-499.09552	-221.80214	944.03864	-291.89761	-341.90555	947.52753	-287.43665	-115.3558	428.79932	-386.62357				-480.63239	441.64023	-370.59293										-105.61996	314.08139	-367.09106	-113.66935	389.41537	-377.47827	-452.62415	56.549343	-361.0773				-476.37411	313.54538	-388.22116	-483.52164	409.50659	-362.32199	-177.66034	23.621147	-515.76422	-189.21217	21.169201	-304.23029	-136.4592	20.4207	-495.59579				-415.5899	21.476433	-523.76379	-403.51266	29.987284	-312.47293	-453.55313	19.234398	-497.40829				-290.74704	1310.3325	-475.34207	-425.55234	1358.5505	-365.92645	-130.25772	1366.1917	-398.43744
14	0.13	-147.90894	885.87097	-502.78674	-422.40973	887.88867	-499.26529	-221.80086	944.0166	-291.97882	-341.90347	947.51581	-287.5675	-115.3132	428.7912	-386.65182				-480.58597	441.64108	-370.72873										-105.60223	314.05313	-367.11005	-113.64395	389.39023	-377.49561	-452.61893	56.55616	-361.09183				-476.34616	313.54431	-388.30737	-483.49838	409.51089	-362.42047	-177.65649	23.615414	-515.77814	-189.22202	21.1784	-304.2428	-136.44621	20.412642	-495.60464				-415.59982	21.470678	-523.76007	-403.46796	29.936977	-312.53891	-453.54303	19.227337	-497.41104				-290.68521	1310.277	-475.4841	-425.47189	1358.5334	-366.08774	-130.21127	1366.1779	-398.59836
15	0.14	-147.78491	885.83875	-502.81155	-422.29745	887.88458	-499.41711	-221.7932	943.99609	-292.06158	-341.90866	947.51282	-287.70245	-115.28918	428.7576	-386.67191				-480.56949	441.64841	-370.84286										-105.58461	314.02283	-367.1178	-113.63635	389.35162	-377.51855	-452.60898	56.572437	-361.10797				-476.29654	313.5361	-388.39279	-483.46268	409.52115	-362.5368	-177.64775	23.604565	-515.79333	-189.23955	21.176205	-304.25684	-136.43727	20.412779	-495.61453				-415.57693	21.453386	-523.77136	-403.42987	29.870604	-312.604	-453.5318	19.228899	-497.41537				-290.63037	1310.2535	-475.61884	-425.39481	1358.5217	-366.24664	-130.16138	1366.1429	-398.75479
16	0.15	-147.6745	885.77142	-502.82657	-422.23141	887.85144	-499.57169	-221.77042	943.94977	-292.13248	-341.8869	947.48126	-287.83167	-115.25174	428.70807	-386.6683				-480.52509	441.6431	-370.95959										-105.55465	314.00339	-367.12744	-113.60524	389.31674	-377.52359	-452.60159	56.566372	-361.12106				-476.25998	313.51059	-388.48712	-483.45694	409.54013	-362.64212	-177.63959	23.597908	-515.80103	-189.24673	21.187389	-304.25815	-136.4341	20.405613	-495.61755				-415.56491	21.434994	-523.77075	-403.38327	29.823767	-312.6207	-453.51349	19.211367	-497.42215				-290.55408	1310.2069	-475.75806	-425.3255	1358.5232	-366.4075	-130.07916	1366.0829	-398.92068
17	0.16	-147.5994	885.69745	-502.83051	-422.15085	887.83069	-499.69434	-221.75371	943.91528	-292.18823	-341.87103	947.45001	-287.96524	-115.22144	428.65848	-386.6825				-480.47968	441.61771	-371.0806										-105.54593	313.9563	-367.12238	-113.56774	389.2861	-377.54385	-452.57483	56.549103	-361.14346				-476.22418	313.47809	-388.58215	-483.42853	409.53561	-362.75504	-177.62892	23.569313	-515.80762	-189.2692	21.179474	-304.26761	-136.43457	20.398811	-495.62485				-415.55469	21.417019	-523.7948	-403.40582	29.84798	-312.52374	-453.50446	19.210072	-497.42569				-290.4967	1310.1829	-475.90277	-425.23944	1358.5111	-366.5831	-130.02769	1366.0411	-399.07956
18	0.17	-147.51749	885.66125	-502.84738	-422.07156	887.79535	-499.84161	-221.74744	943.90411	-292.2522	-341.8609	947.44086	-288.0817	-115.21007	428.6377	-386.67941				-480.47067	441.61798	-371.19061										-105.56028	313.91644	-367.10693	-113.53893	389.24481	-377.55811	-452.57208	56.550129	-361.15582				-476.20117	313.46332	-388.65805	-483.39966	409.53589	-362.84778	-177.62338	23.560205	-515.81635	-189.28687	21.183792	-304.26575	-136.41927	20.380579	-495.62936				-415.54272	21.38209	-523.80035	-403.32657	29.777639	-312.6463	-453.49396	19.195032	-497.43356				-290.43686	1310.171	-476.01941	-425.16089	1358.4965	-366.76654	-129.97066	1366.0157	-399.22906
